<svg width="100" height="100" viewBox="0 0 100 100" fill="none" xmlns="http://www.w3.org/2000/svg">
<path d="M75.4167 73.9579H24.5833C14.9166 73.9579 9.375 68.4163 9.375 58.7496V8.33289C9.375 6.62454 10.7917 5.20789 12.5 5.20789H87.5C89.2083 5.20789 90.625 6.62454 90.625 8.33289V58.7496C90.625 68.4163 85.0834 73.9579 75.4167 73.9579ZM15.625 11.4579V58.7496C15.625 64.9579 18.375 67.7079 24.5833 67.7079H75.375C81.5833 67.7079 84.3333 64.9579 84.3333 58.7496V11.4579H15.625Z" fill="#FF6854" fill-opacity="0.05"/>
<path d="M91.6677 11.4579H8.33435C6.62602 11.4579 5.20935 10.0412 5.20935 8.33289C5.20935 6.62454 6.62602 5.20789 8.33435 5.20789H91.6677C93.3761 5.20789 94.7927 6.62454 94.7927 8.33289C94.7927 10.0412 93.3761 11.4579 91.6677 11.4579Z" fill="#FF6854" fill-opacity="0.05"/>
<path d="M33.3344 94.7912C32.1678 94.7912 31.0844 94.166 30.5427 93.0828C29.7511 91.541 30.3761 89.666 31.9595 88.8743L46.8761 81.4162V70.8328C46.8761 69.1245 48.2928 67.7078 50.0011 67.7078C51.7094 67.7078 53.1261 69.1245 53.1261 70.8328V83.3328C53.1261 84.4995 52.4594 85.5829 51.3761 86.1245L34.7094 94.4579C34.2927 94.6662 33.7928 94.7912 33.3344 94.7912Z" fill="#FF6854" fill-opacity="0.05"/>
<path d="M66.6655 94.7919C66.2072 94.7919 65.7072 94.6669 65.2905 94.4586L48.6239 86.1253C47.0822 85.3336 46.457 83.4586 47.207 81.9169C47.9988 80.3752 49.8738 79.7502 51.4155 80.5002L68.082 88.8336C69.6238 89.6252 70.2488 91.5002 69.4988 93.0419C68.9155 94.1669 67.7905 94.7919 66.6655 94.7919Z" fill="#FF6854" fill-opacity="0.05"/>
<path d="M31.2488 48.9575C30.3738 48.9575 29.457 48.5825 28.832 47.8325C27.707 46.4992 27.9153 44.5409 29.2486 43.4159L42.3738 32.4575C43.582 31.4575 45.1236 31.0409 46.5821 31.2909C48.0821 31.5409 49.3738 32.4575 50.1653 33.7908L54.5403 41.0825L66.7486 30.9159C68.0821 29.8327 70.0403 29.9992 71.1653 31.3325C72.2903 32.6658 72.0821 34.6241 70.7488 35.7491L57.6236 46.7075C56.4153 47.7075 54.8738 48.1242 53.4153 47.8742C51.9153 47.6242 50.6236 46.7077 49.8321 45.3742L45.4571 38.0827L33.2488 48.2491C32.6653 48.7075 31.957 48.9575 31.2488 48.9575Z" fill="#FF6854" fill-opacity="0.05"/>
</svg>
