<svg width="64" height="64" viewBox="0 0 64 64" fill="none" xmlns="http://www.w3.org/2000/svg">
<path d="M48.8533 34.0002H40C33.36 34.0002 30 30.2402 30 22.8002V15.1469C30 12.4269 30.32 8.53355 33.1467 6.40022C35.52 4.64022 38.9333 4.50689 43.9733 5.97355C50.5867 7.89355 56.1067 13.4136 58.0267 20.0269C59.4933 25.0402 59.36 28.4802 57.6 30.8269C55.4667 33.6802 51.5733 34.0002 48.8533 34.0002ZM38.08 8.96022C36.9867 8.96022 36.1333 9.17355 35.5733 9.60022C34.5333 10.3736 34.0267 12.1869 34.0267 15.1469V22.8269C34.0267 28.8002 36.32 30.0269 40.0267 30.0269H48.88C51.8133 30.0269 53.6267 29.5202 54.4267 28.4802C55.36 27.2536 55.28 24.8002 54.24 21.2002C52.6933 15.9469 48.16 11.3869 42.9067 9.86689C40.9333 9.25355 39.3333 8.96022 38.08 8.96022Z" fill="#FF6854"/>
<path d="M29.5197 60.6669C28.1064 60.6669 26.6664 60.5602 25.2264 60.3202C14.3197 58.5602 5.43969 49.7069 3.67969 38.8002C1.41302 24.7735 10.453 11.5469 24.293 8.7202C25.3864 8.50687 26.4264 9.2002 26.6664 10.2669C26.8797 11.3602 26.1864 12.4002 25.1197 12.6402C13.413 15.0402 5.73302 26.2402 7.67969 38.1602C9.17302 47.3869 16.6664 54.8802 25.893 56.3735C37.8664 58.2935 49.0397 50.5869 51.413 38.8269C51.6264 37.7335 52.693 37.0402 53.7597 37.2535C54.853 37.4669 55.5464 38.5335 55.333 39.6002C52.7997 52.0535 41.9197 60.6669 29.5197 60.6669Z" fill="#FF6854"/>
</svg>
