<svg width="100" height="100" viewBox="0 0 100 100" fill="none" xmlns="http://www.w3.org/2000/svg">
<path d="M31.2517 63.5414C30.4601 63.5414 29.6684 63.2497 29.0434 62.6247C27.8351 61.4164 27.8351 59.4164 29.0434 58.2082L42.3767 44.8747C43.0434 44.2082 43.9184 43.8747 44.8767 43.9582C45.7934 44.0414 46.6267 44.5414 47.1684 45.3332L51.7101 52.1664L66.5017 37.3747C67.7101 36.1664 69.7101 36.1664 70.9184 37.3747C72.1267 38.5832 72.1267 40.5832 70.9184 41.7914L53.4184 59.2914C52.7517 59.9582 51.8767 60.2914 50.9184 60.2082C50.0017 60.1247 49.1684 59.6247 48.6267 58.8332L44.0851 51.9997L33.4601 62.6247C32.8351 63.2497 32.0434 63.5414 31.2517 63.5414Z" fill="#292D32" fill-opacity="0.05"/>
<path d="M68.7489 51.041C67.0406 51.041 65.6239 49.6245 65.6239 47.916V42.7078H60.4156C58.7074 42.7078 57.2906 41.291 57.2906 39.5828C57.2906 37.8745 58.7074 36.4578 60.4156 36.4578H68.7489C70.4574 36.4578 71.8739 37.8745 71.8739 39.5828V47.916C71.8739 49.6245 70.4574 51.041 68.7489 51.041Z" fill="#292D32" fill-opacity="0.05"/>
<path d="M62.5011 94.7912H37.5011C14.876 94.7912 5.20935 85.1246 5.20935 62.4996V37.4996C5.20935 14.8746 14.876 5.20789 37.5011 5.20789H62.5011C85.1261 5.20789 94.7927 14.8746 94.7927 37.4996V62.4996C94.7927 85.1246 85.1261 94.7912 62.5011 94.7912ZM37.5011 11.4579C18.2927 11.4579 11.4594 18.2912 11.4594 37.4996V62.4996C11.4594 81.7079 18.2927 88.5412 37.5011 88.5412H62.5011C81.7094 88.5412 88.5427 81.7079 88.5427 62.4996V37.4996C88.5427 18.2912 81.7094 11.4579 62.5011 11.4579H37.5011Z" fill="#292D32" fill-opacity="0.05"/>
</svg>
