<svg width="100" height="100" viewBox="0 0 100 100" fill="none" xmlns="http://www.w3.org/2000/svg">
<path d="M76.3333 53.1254H62.5C52.125 53.1254 46.875 47.2504 46.875 35.6254V23.6671C46.875 19.4171 47.375 13.3337 51.7917 10.0004C55.5 7.2504 60.8333 7.04208 68.7083 9.33373C79.0417 12.3337 87.6667 20.9588 90.6667 31.2921C92.9583 39.1254 92.75 44.5004 90 48.1671C86.6667 52.6254 80.5833 53.1254 76.3333 53.1254ZM59.5 14.0004C57.7917 14.0004 56.4583 14.3337 55.5833 15.0004C53.9583 16.2088 53.1667 19.0421 53.1667 23.6671V35.6671C53.1667 45.0004 56.75 46.9171 62.5417 46.9171H76.375C80.9583 46.9171 83.7917 46.1254 85.0417 44.5004C86.5 42.5838 86.375 38.7504 84.75 33.1254C82.3333 24.9171 75.25 17.7921 67.0417 15.4171C63.9583 14.4587 61.4583 14.0004 59.5 14.0004Z" fill="#292D32" fill-opacity="0.05"/>
<path d="M46.1245 94.792C43.9162 94.792 41.6662 94.6253 39.4162 94.2503C22.3745 91.5003 8.49951 77.667 5.74951 60.6253C2.20784 38.7086 16.3328 18.042 37.9578 13.6253C39.6662 13.292 41.2912 14.3753 41.6662 16.042C41.9995 17.7503 40.9162 19.3753 39.2495 19.7503C20.9578 23.5003 8.95784 41.0003 11.9995 59.6253C14.3328 74.042 26.0412 85.7503 40.4578 88.0836C59.1662 91.0836 76.6245 79.042 80.3328 60.667C80.6662 58.9586 82.3328 57.8753 83.9995 58.2086C85.7078 58.542 86.7913 60.2086 86.4578 61.8753C82.4995 81.3336 65.4995 94.792 46.1245 94.792Z" fill="#292D32" fill-opacity="0.05"/>
</svg>
