<svg width="64" height="64" viewBox="0 0 64 64" fill="none" xmlns="http://www.w3.org/2000/svg">
<path d="M20.0011 40.6665C19.4945 40.6665 18.9878 40.4798 18.5878 40.0798C17.8145 39.3065 17.8145 38.0265 18.5878 37.2532L27.1211 28.7198C27.5478 28.2932 28.1078 28.0798 28.7211 28.1332C29.3078 28.1865 29.8411 28.5065 30.1878 29.0132L33.0945 33.3865L42.5611 23.9198C43.3345 23.1465 44.6145 23.1465 45.3878 23.9198C46.1611 24.6932 46.1611 25.9732 45.3878 26.7465L34.1878 37.9465C33.7611 38.3732 33.2011 38.5865 32.5878 38.5332C32.0011 38.4798 31.4678 38.1598 31.1211 37.6532L28.2145 33.2798L21.4145 40.0798C21.0145 40.4798 20.5078 40.6665 20.0011 40.6665Z" fill="white"/>
<path d="M43.9993 32.6663C42.906 32.6663 41.9993 31.7597 41.9993 30.6663V27.333H38.666C37.5727 27.333 36.666 26.4263 36.666 25.333C36.666 24.2397 37.5727 23.333 38.666 23.333H43.9993C45.0927 23.333 45.9993 24.2397 45.9993 25.333V30.6663C45.9993 31.7597 45.0927 32.6663 43.9993 32.6663Z" fill="white"/>
<path d="M40.0007 60.6663H24.0007C9.52065 60.6663 3.33398 54.4797 3.33398 39.9997V23.9997C3.33398 9.51968 9.52065 3.33301 24.0007 3.33301H40.0007C54.4807 3.33301 60.6673 9.51968 60.6673 23.9997V39.9997C60.6673 54.4797 54.4807 60.6663 40.0007 60.6663ZM24.0007 7.33301C11.7073 7.33301 7.33398 11.7063 7.33398 23.9997V39.9997C7.33398 52.293 11.7073 56.6663 24.0007 56.6663H40.0007C52.294 56.6663 56.6673 52.293 56.6673 39.9997V23.9997C56.6673 11.7063 52.294 7.33301 40.0007 7.33301H24.0007Z" fill="white"/>
</svg>
