<svg width="23" height="23" viewBox="0 0 23 23" fill="none" xmlns="http://www.w3.org/2000/svg">
<path d="M9.5 8.25C10.0177 8.25 10.4375 8.66974 10.4375 9.1875V13.5625C10.4375 14.0802 10.0177 14.5 9.5 14.5C8.98224 14.5 8.5625 14.0802 8.5625 13.5625V9.1875C8.5625 8.66974 8.98224 8.25 9.5 8.25ZM9.5 7C10.1904 7 10.75 6.44035 10.75 5.75C10.75 5.05965 10.1904 4.5 9.5 4.5C8.80965 4.5 8.25 5.05965 8.25 5.75C8.25 6.44035 8.80965 7 9.5 7ZM9.5 0.4375C14.5051 0.4375 18.5625 4.49493 18.5625 9.5C18.5625 11.6649 17.8034 13.6524 16.5369 15.211L22.6629 21.3371C23.029 21.7032 23.029 22.2968 22.6629 22.6629C22.3301 22.9958 21.8092 23.026 21.4423 22.7536L21.3371 22.6629L15.211 16.5369C13.6524 17.8034 11.6649 18.5625 9.5 18.5625C4.49493 18.5625 0.4375 14.5051 0.4375 9.5C0.4375 4.49493 4.49493 0.4375 9.5 0.4375ZM9.5 2.3125C5.53045 2.3125 2.3125 5.53045 2.3125 9.5C2.3125 13.4695 5.53045 16.6875 9.5 16.6875C13.4695 16.6875 16.6875 13.4695 16.6875 9.5C16.6875 5.53045 13.4695 2.3125 9.5 2.3125Z" fill="white"/>
</svg>
