<svg width="26" height="20" viewBox="0 0 26 20" fill="none" xmlns="http://www.w3.org/2000/svg">
<path d="M5.5 5C4.80965 5 4.25 5.55965 4.25 6.25C4.25 6.94035 4.80965 7.5 5.5 7.5H10.5C11.1904 7.5 11.75 6.94035 11.75 6.25C11.75 5.55965 11.1904 5 10.5 5H5.5ZM11.75 10C11.75 9.30962 12.3096 8.75 13 8.75H18C18.6904 8.75 19.25 9.30962 19.25 10C19.25 10.6904 18.6904 11.25 18 11.25H13C12.3096 11.25 11.75 10.6904 11.75 10ZM16.75 12.5C16.0596 12.5 15.5 13.0596 15.5 13.75C15.5 14.4404 16.0596 15 16.75 15H20.5C21.1904 15 21.75 14.4404 21.75 13.75C21.75 13.0596 21.1904 12.5 20.5 12.5H16.75ZM4.5625 0C2.31884 0 0.5 1.81884 0.5 4.0625V15.9375C0.5 18.1811 2.31884 20 4.5625 20H21.4375C23.6811 20 25.5 18.1811 25.5 15.9375V4.0625C25.5 1.81884 23.6811 0 21.4375 0H4.5625ZM8 1.875V3.75H9.875V1.875H16.125V7.5H18V1.875H21.4375C22.6456 1.875 23.625 2.85438 23.625 4.0625V15.9375C23.625 17.1456 22.6456 18.125 21.4375 18.125H18V16.25H16.75C16.5343 16.25 16.3247 16.2226 16.125 16.1712V18.125H9.875V8.75H8V18.125H4.5625C3.35438 18.125 2.375 17.1456 2.375 15.9375V4.0625C2.375 2.85438 3.35438 1.875 4.5625 1.875H8Z" fill="white"/>
</svg>
