<svg width="27" height="27" viewBox="0 0 27 27" fill="none" xmlns="http://www.w3.org/2000/svg">
<path d="M14.25 12.6875H22.6432C23.0686 12.2536 23.6195 11.9433 24.237 11.8151C23.9447 5.51671 18.7458 0.5 12.375 0.5C5.81661 0.5 0.5 5.81661 0.5 12.375C0.5 18.7237 5.48215 23.9089 11.75 24.2339V22.375V22.3558C6.51832 22.0333 2.375 17.688 2.375 12.375C2.375 6.9567 6.68425 2.54489 12.0625 2.37979V10.5C12.0625 11.7081 13.0419 12.6875 14.25 12.6875ZM14.25 10.8125C14.0774 10.8125 13.9375 10.6726 13.9375 10.5V2.49635C18.2091 3.1666 21.5834 6.54094 22.2536 10.8125H14.25ZM24.875 13C23.8395 13 23 13.8395 23 14.875V24.875C23 25.9105 23.8395 26.75 24.875 26.75C25.9105 26.75 26.75 25.9105 26.75 24.875V14.875C26.75 13.8395 25.9105 13 24.875 13ZM14.875 20.5C13.8395 20.5 13 21.3395 13 22.375V24.875C13 25.9105 13.8395 26.75 14.875 26.75C15.9105 26.75 16.75 25.9105 16.75 24.875V22.375C16.75 21.3395 15.9105 20.5 14.875 20.5ZM18 18.625C18 17.5895 18.8395 16.75 19.875 16.75C20.9105 16.75 21.75 17.5895 21.75 18.625V24.875C21.75 25.9105 20.9105 26.75 19.875 26.75C18.8395 26.75 18 25.9105 18 24.875V18.625Z" fill="white"/>
</svg>
